# Blender v2.79 (sub 0) OBJ File: 'Hex rect .blend'
# www.blender.org
mtllib Hex rect .mtl
o Circle
v 0.000000 0.000000 -1.000000
v -0.866025 0.000000 -0.500000
v -0.866025 0.000000 0.500000
v 0.000000 0.000000 1.000000
v 0.866025 0.000000 0.500000
v 0.866025 0.000000 -0.500000
v 0.000000 0.364120 -1.000000
v -0.866025 0.364120 -0.500000
v -0.866025 0.364120 0.500000
v 0.000000 0.364120 1.000000
v 0.866025 0.364120 0.500000
v 0.866025 0.364120 -0.500000
v -0.600000 0.364120 0.200000
v -0.600000 -0.000000 0.200000
v 0.600000 0.364120 0.200000
v 0.600000 -0.000000 0.200000
v -0.600000 0.000000 -0.200000
v -0.600000 0.364120 -0.200000
v 0.600000 -0.000000 -0.200000
v 0.600000 0.364120 -0.200000
vn -0.0000 -1.0000 0.0000
vn -0.0000 1.0000 -0.0000
vn 0.5000 0.0000 -0.8660
vn 0.5000 0.0000 0.8660
vn -1.0000 0.0000 0.0000
vn 1.0000 0.0000 0.0000
vn -0.5000 0.0000 0.8660
vn -0.5000 0.0000 -0.8660
vn -0.0000 0.0000 1.0000
vn 0.0000 0.0000 -1.0000
usemtl None
s off
f 2//1 17//1 14//1 16//1 5//1 4//1 3//1
f 8//2 9//2 13//2 18//2 20//2 12//2 7//2
f 6//3 1//3 7//3 12//3
f 4//4 5//4 11//4 10//4
f 2//5 3//5 9//5 8//5
f 5//6 6//6 12//6 11//6
f 3//7 4//7 10//7 9//7
f 1//8 2//8 8//8 7//8
f 16//5 15//5 20//5 19//5
f 19//9 20//9 18//9 17//9
f 17//6 18//6 13//6 14//6
f 12//2 20//2 15//2 13//2 9//2 10//2 11//2
f 5//1 16//1 19//1 17//1 2//1 1//1 6//1
f 14//10 13//10 15//10 16//10
