# Blender v2.79 (sub 0) OBJ File: 'Tunnel Spike 1.blend'
# www.blender.org
mtllib Tunnel spike 1.mtl
o Circle
v 0.379945 1.538710 0.106201
v -0.172684 2.238373 -0.013313
v 0.710874 1.654316 -0.611813
v 0.699060 1.671683 -0.644918
v 0.691274 1.695056 -0.675419
v 0.687814 1.723536 -0.702142
v 0.688815 1.756028 -0.724061
v 0.694237 1.791284 -0.740333
v 0.703873 1.827949 -0.750334
v 0.717352 1.864614 -0.753678
v 0.734155 1.899869 -0.750238
v 0.753638 1.932362 -0.740145
v 0.775051 1.960841 -0.723788
v 0.797572 1.984214 -0.701794
v 0.820335 2.001581 -0.675010
v 0.842465 2.012276 -0.644464
v 0.863113 2.015887 -0.611331
v 0.881483 2.012276 -0.576883
v 0.896872 2.001581 -0.542445
v 0.908686 1.984214 -0.509339
v 0.916472 1.960841 -0.478839
v 0.919932 1.932362 -0.452116
v 0.918931 1.899869 -0.430197
v 0.913509 1.864614 -0.413924
v 0.903873 1.827948 -0.403924
v 0.890394 1.791283 -0.400579
v 0.873591 1.756027 -0.404020
v 0.320988 1.670408 -0.031523
v -0.088141 1.569361 -0.095784
v 0.000000 2.711477 -1.000000
v 0.866025 2.711477 -0.500000
v 0.866025 2.711477 0.500000
v -0.000000 2.711477 1.000000
v -0.866025 2.711477 0.500000
v -0.866025 2.711477 -0.500000
v -0.000000 0.087519 -1.000000
v 0.866025 0.087519 -0.500000
v 0.866025 0.087519 0.500000
v -0.000000 0.087519 1.000000
v -0.866026 0.087519 0.500000
v -0.866026 0.087519 -0.500000
v -0.178423 0.490628 0.896988
v -0.001994 0.087519 0.998849
v -0.000001 0.087519 0.999045
v -0.000000 2.711477 0.449110
v -0.087617 2.711477 0.440481
v -0.334274 0.686554 0.807007
v -0.171867 2.711477 0.414924
v -0.866026 0.641255 -0.172264
v -0.866026 0.381751 -0.358721
v -0.440480 2.711477 -0.087618
v -0.414923 2.711477 -0.171867
v -0.866026 0.087519 -0.488905
v -0.857449 0.087519 -0.504952
v -0.802871 0.247076 -0.536462
v -0.373421 2.711477 -0.249513
v 0.178422 0.490626 0.896988
v 0.001994 0.087519 0.998849
v 0.087617 2.711477 0.440481
v -0.482171 0.713343 0.721619
v -0.633975 0.576443 0.633974
v -0.249512 2.711477 0.373421
v -0.317569 2.711477 0.317569
v 0.334273 0.686553 0.807007
v 0.171867 2.711477 0.414924
v 0.866025 0.381752 -0.358720
v 0.866025 0.641255 -0.172263
v 0.414924 2.711477 -0.171867
v 0.440481 2.711477 -0.087617
v 0.802872 0.247072 -0.536462
v 0.857448 0.087519 -0.504952
v 0.866025 0.087520 -0.488905
v 0.373421 2.711477 -0.249512
v 0.482170 0.713343 -0.721619
v 0.633974 0.576444 -0.633975
v 0.249512 2.711477 -0.373421
v 0.317569 2.711477 -0.317569
v 0.334273 0.686553 -0.807007
v 0.171867 2.711477 -0.414924
v 0.866025 0.722209 -0.000000
v 0.449110 2.711477 -0.000000
v 0.178422 0.490626 -0.896988
v 0.087617 2.711477 -0.440481
v 0.866025 0.641256 0.172263
v 0.440481 2.711477 0.087617
v 0.001994 0.087519 -0.998849
v -0.000000 0.087519 -0.999045
v 0.000000 2.711477 -0.449110
v -0.001994 0.087520 -0.998849
v -0.178421 0.490625 -0.896989
v -0.087616 2.711477 -0.440481
v -0.866026 0.381754 0.358719
v -0.866026 0.641257 0.172262
v -0.414924 2.711477 0.171867
v -0.440481 2.711477 0.087617
v -0.802873 0.247072 0.536461
v -0.857449 0.087519 0.504952
v -0.866026 0.087519 0.488905
v -0.373422 2.711477 0.249512
v 0.802872 0.247072 0.536462
v 0.857448 0.087519 0.504952
v 0.866025 0.087519 0.488905
v 0.866025 0.381752 0.358719
v 0.414924 2.711477 0.171867
v 0.373421 2.711477 0.249512
v -0.866026 0.722210 -0.000001
v -0.449110 2.711477 -0.000000
v 0.633974 0.576443 0.633975
v 0.317569 2.711477 0.317569
v 0.482170 0.713344 0.721619
v 0.249512 2.711477 0.373421
v -0.633974 0.576445 -0.633975
v -0.317568 2.711477 -0.317569
v -0.482170 0.713344 -0.721619
v -0.249512 2.711477 -0.373422
v -0.334272 0.686553 -0.807008
v -0.171866 2.711477 -0.414924
v -0.324095 1.747420 -0.561554
v -0.333026 1.714494 -0.564567
v -0.320602 1.781463 -0.555370
v -0.322805 1.815695 -0.546097
v -0.330866 1.849110 -0.533886
v -0.344822 1.880621 -0.518973
v -0.347064 1.683547 -0.564383
v -0.365806 1.655389 -0.561024
v -0.373430 1.647227 -0.558880
v -0.387182 1.630463 -0.552117
v -0.346049 1.882389 -0.517900
v -0.362192 1.906167 -0.498236
v -0.383877 1.926180 -0.475040
v -0.409272 1.939820 -0.450518
v -0.410597 1.609878 -0.538455
v -0.431178 1.944867 -0.431179
v -0.436389 1.945204 -0.424718
v -0.461029 1.939111 -0.396697
v -0.436046 1.594525 -0.521712
v -0.462727 1.584935 -0.502404
v -0.484936 1.582117 -0.484937
v -0.488919 1.581475 -0.480295
v -0.485450 1.925785 -0.371321
v -0.508624 1.905950 -0.349605
v -0.510245 1.584246 -0.453398
v -0.526889 1.878658 -0.330881
v -0.515171 1.898046 -0.344227
v -0.541656 1.847187 -0.317178
v -0.546816 1.608125 -0.400986
v -0.560871 1.628412 -0.377190
v -0.562899 1.779280 -0.307482
v -0.553747 1.813682 -0.309383
v -0.529754 1.593240 -0.426670
v -0.567860 1.652838 -0.354147
v -0.561781 1.630569 -0.375371
v -0.568944 1.745043 -0.311320
v -0.571419 1.680938 -0.335054
v -0.571792 1.711957 -0.320631
v 0.466816 1.486944 0.525487
v 0.497493 1.484176 0.501059
v 0.436197 1.497833 0.547678
v 0.491442 1.823668 0.397593
v 0.468319 1.828951 0.424033
v 0.513152 1.813531 0.374473
v 0.592019 1.631075 0.318576
v 0.590636 1.658431 0.309061
v 0.561030 1.758784 0.320046
v 0.548048 1.780108 0.334900
v 0.448392 1.828711 0.448392
v 0.444042 1.828257 0.452084
v 0.532918 1.799168 0.354774
v 0.418529 1.819373 0.475419
v 0.532300 1.799750 0.355671
v 0.338698 1.649440 0.576921
v 0.346308 1.611775 0.581761
v 0.360799 1.575709 0.582545
v 0.523449 1.492045 0.467622
v 0.499403 1.484501 0.499403
v 0.381676 1.543014 0.579118
v 0.386106 1.538366 0.577849
v 0.407294 1.516694 0.566308
v 0.338064 1.686955 0.568387
v 0.344144 1.722704 0.556683
v 0.586356 1.575974 0.353551
v 0.578782 1.549259 0.379541
v 0.586720 1.685167 0.304557
v 0.545967 1.506446 0.435450
v 0.571833 1.735630 0.310080
v 0.590674 1.603443 0.333318
v 0.580418 1.710992 0.304920
v 0.576751 1.544666 0.385373
v 0.564721 1.525833 0.406224
v 0.356380 1.755285 0.542437
v 0.360145 1.761329 0.538995
v 0.373600 1.782721 0.522182
v 0.394679 1.804165 0.499097
v 0.866025 1.743410 -0.407939
v 0.866025 1.869878 -0.500000
v 0.724265 1.645010 -0.581845
v 0.624960 1.974870 -0.639179
v 0.608900 1.946625 -0.648452
v 0.371654 2.035183 -0.455659
v 0.377544 2.056605 -0.445046
v 0.645991 1.998635 -0.627037
v 0.386718 2.074559 -0.432672
v 0.544192 1.850966 -0.310763
v 0.538671 1.828224 -0.331153
v 0.546767 1.877637 -0.294145
v 0.866025 1.994241 -0.489771
v 0.866025 1.973696 -0.457277
v 0.486569 2.083426 -0.315714
v 0.498645 2.067309 -0.300252
v 0.866025 1.842377 -0.390191
v 0.866025 1.801532 -0.391702
v 0.537827 1.967499 -0.271110
v 0.543356 1.937234 -0.274158
v 0.530319 1.810713 -0.354481
v 0.530378 1.810778 -0.354387
v 0.866025 1.759515 -0.401195
v 0.546430 1.906852 -0.281849
v 0.514085 1.802901 -0.376831
v 0.615780 1.766634 -0.644479
v 0.601998 1.804636 -0.652436
v 0.398818 1.896442 -0.470801
v 0.385482 1.925861 -0.473808
v 0.594552 1.842693 -0.656735
v 0.376109 1.955349 -0.473544
v 0.671480 2.017244 -0.612321
v 0.398881 2.088651 -0.418888
v 0.593367 1.879690 -0.657419
v 0.598247 1.914630 -0.654602
v 0.370745 1.983927 -0.470235
v 0.369314 2.010767 -0.464168
v 0.415909 1.868225 -0.464389
v 0.635811 1.729935 -0.632914
v 0.436341 1.842468 -0.454570
v 0.661790 1.695911 -0.617915
v 0.440088 2.106751 -0.367098
v 0.455615 2.103616 -0.349209
v 0.804316 2.028827 -0.535628
v 0.768154 2.036284 -0.556506
v 0.866025 1.947459 -0.430466
v 0.510202 2.047115 -0.287565
v 0.412537 2.098823 -0.403275
v 0.408881 2.095325 -0.408881
v 0.700828 2.030078 -0.595376
v 0.866025 1.880952 -0.396411
v 0.530196 1.996511 -0.272550
v 0.471764 2.095697 -0.332135
v 0.840669 2.014024 -0.514640
v 0.866025 1.916275 -0.409992
v 0.520852 2.023311 -0.278172
v 0.866025 1.998115 -0.500000
v 0.482125 2.087678 -0.322146
v 0.425601 2.105121 -0.385286
v 0.733330 2.036583 -0.576611
v 0.457132 1.822047 -0.439934
v 0.447993 1.831401 -0.447994
v 0.693152 1.666031 -0.599808
v 0.476507 1.808862 -0.420660
v 0.495824 1.802307 -0.399277
v -0.604112 1.390150 0.402552
v -0.603476 1.391307 0.403229
v -0.584395 1.418632 0.417497
v -0.568089 1.449372 0.427259
v -0.547535 1.513413 0.431249
v -0.543626 1.544808 0.425689
v -0.555729 1.481294 0.431825
v -0.548726 1.602031 0.400662
v -0.557580 1.626280 0.381901
v -0.639612 1.346675 0.355372
v -0.621258 1.365983 0.381167
v -0.544037 1.574618 0.415388
v -0.677104 1.326369 0.294214
v -0.658483 1.333205 0.326026
v -0.567003 1.646248 0.358666
v -0.561458 1.632432 0.375153
v -0.590798 1.670777 0.303297
v -0.605962 1.674471 0.273291
v -0.697801 1.336781 0.227082
v -0.689644 1.327696 0.260500
v -0.577686 1.661222 0.332053
v -0.683099 1.326484 0.282948
v -0.620087 1.671656 0.242658
v -0.631294 1.662127 0.212561
v -0.703784 1.352749 0.195885
v -0.707331 1.374903 0.168276
v -0.616004 1.672995 0.255157
v -0.655112 1.625642 0.160258
v -0.666871 1.599757 0.140091
v -0.643107 1.646646 0.184743
v -0.704261 1.433775 0.128265
v -0.707858 1.410723 0.140801
v -0.708298 1.402245 0.145441
v -0.676067 1.569792 0.125088
v -0.671666 1.586791 0.133602
v -0.698214 1.467689 0.117497
v -0.683836 1.536976 0.116032
v -0.691314 1.502528 0.113421
vn -0.6234 -0.7616 -0.1771
vn -0.6720 -0.6606 -0.3347
vn -0.6998 -0.5321 -0.4765
vn -0.7059 -0.3810 -0.5971
vn -0.6900 -0.2131 -0.6917
vn -0.6527 -0.0349 -0.7568
vn -0.5954 0.1468 -0.7899
vn -0.5204 0.3251 -0.7897
vn -0.4304 0.4930 -0.7561
vn -0.3291 0.6441 -0.6906
vn -0.2202 0.7726 -0.5955
vn -0.1080 0.8735 -0.4746
vn 0.0033 0.9431 -0.3326
vn 0.1093 0.9785 -0.1747
vn 0.2060 0.9785 -0.0073
vn 0.2896 0.9431 0.1634
vn 0.3571 0.8735 0.3308
vn 0.4056 0.7726 0.4885
vn 0.4335 0.6441 0.6303
vn 0.4396 0.4930 0.7508
vn 0.4237 0.3251 0.8455
vn 0.3864 0.1468 0.9106
vn 0.3291 -0.0349 0.9437
vn 0.2540 -0.2131 0.9434
vn 0.1641 -0.3810 0.9099
vn 0.0000 1.0000 0.0000
vn -0.0000 -1.0000 0.0000
vn -0.5000 0.0000 -0.8660
vn -0.5000 0.0000 0.8660
vn 1.0000 -0.0000 0.0000
vn -1.0000 0.0000 0.0000
vn 0.5000 -0.0000 0.8660
vn 0.5000 -0.0000 -0.8660
vn -0.9742 -0.2042 -0.0960
vn -0.0001 -1.0000 0.0000
vn 0.0000 -1.0000 0.0002
vn -0.7567 -0.2042 -0.6210
vn -0.8633 -0.2042 -0.4615
vn 0.9742 -0.2042 0.0960
vn -0.9368 -0.2042 0.2842
vn -0.9742 -0.2042 0.0960
vn -0.7567 -0.2042 0.6210
vn 0.0960 -0.2042 -0.9742
vn 0.8633 -0.2042 0.4615
vn -0.0960 -0.2042 -0.9742
vn 0.0960 -0.2042 0.9742
vn -0.6210 -0.2042 0.7567
vn 0.4615 -0.2042 -0.8633
vn -0.4615 -0.2042 0.8633
vn -0.6210 -0.2042 -0.7567
vn 0.6210 -0.2042 0.7567
vn 0.2842 -0.2042 0.9368
vn 0.9368 -0.2042 0.2842
vn -0.4615 -0.2042 -0.8633
vn 0.6210 -0.2042 -0.7567
vn 0.8633 -0.2042 -0.4615
vn -0.0960 -0.2042 0.9742
vn -0.8633 -0.2042 0.4615
vn 0.9742 -0.2042 -0.0960
vn -0.9368 -0.2042 -0.2842
vn 0.2842 -0.2042 -0.9368
vn 0.4615 -0.2042 0.8633
vn -0.2842 -0.2042 0.9368
vn -0.2842 -0.2042 -0.9368
vn 0.9368 -0.2042 -0.2842
vn 0.7567 -0.2042 0.6210
vn 0.7567 -0.2042 -0.6210
vn 0.7784 -0.3562 -0.5169
vn 0.4582 -0.7907 -0.4061
vn 0.5804 -0.6655 -0.4694
vn -0.3492 0.1441 0.9259
vn 0.8907 -0.0088 -0.4546
vn 0.8467 -0.1840 -0.4993
vn 0.9000 0.3238 -0.2919
vn -0.1908 -0.9640 0.1851
vn -0.1511 0.4534 0.8784
vn -0.0730 -0.9963 0.0447
vn 0.5023 0.7842 0.3643
vn 0.8650 0.4684 -0.1802
vn -0.3757 -0.8030 0.4626
vn 0.8050 0.5909 -0.0536
vn 0.3266 -0.8896 -0.3193
vn 0.1027 0.6775 0.7283
vn -0.2592 0.3066 0.9158
vn 0.3735 0.7823 0.4985
vn -0.4357 -0.6805 0.5892
vn 0.1907 -0.9584 -0.2124
vn -0.4794 -0.3747 0.7936
vn 0.6201 0.7519 0.2239
vn 0.9087 0.1626 -0.3845
vn -0.4174 -0.0281 0.9083
vn 0.6885 -0.5187 -0.5068
vn -0.2930 -0.8987 0.3262
vn 0.2385 0.7463 0.6214
vn -0.4614 -0.2033 0.8636
vn 0.7223 0.6866 0.0828
vn 0.0558 -0.9944 -0.0895
vn -0.0289 0.5786 0.8151
vn -0.4707 -0.5359 0.7009
vn -0.7314 -0.6784 -0.0688
vn -0.2721 -0.9329 -0.2360
vn -0.4400 -0.8808 -0.1749
vn 0.5161 0.6784 -0.5229
vn -0.9279 -0.3728 0.0027
vn -0.8438 -0.5359 -0.0279
vn -0.9995 -0.0104 0.0287
vn 0.5298 -0.6638 -0.5279
vn 0.2246 0.8808 -0.4168
vn 0.3959 -0.7834 -0.4792
vn -0.6113 0.7834 -0.1126
vn -0.9843 0.1750 0.0232
vn 0.7200 -0.3536 -0.5971
vn -0.9354 0.3536 0.0054
vn -0.0980 -0.9491 -0.2994
vn -0.1174 0.9491 -0.2923
vn 0.3797 0.7949 -0.4733
vn -0.4580 0.8729 -0.1684
vn 0.0758 -0.9288 -0.3627
vn 0.7689 -0.1750 -0.6149
vn 0.7651 0.1953 -0.6135
vn -0.7452 0.6638 -0.0638
vn -0.9805 -0.1953 0.0218
vn 0.6284 0.5359 -0.5638
vn -0.5951 -0.7949 -0.1185
vn 0.6393 -0.5187 -0.5677
vn -0.2912 0.9288 -0.2291
vn 0.2426 -0.8729 -0.4234
vn -0.8546 0.5187 -0.0240
vn 0.7125 0.3728 -0.5944
vn 0.0568 0.9329 -0.3557
vn 0.7842 0.0104 -0.6205
vn 0.8138 -0.3420 -0.4698
vn 0.1093 0.9785 -0.1748
vn -0.3756 -0.8666 0.3285
vn -0.0461 -0.6606 0.7493
vn -0.2696 -0.8311 0.4863
vn -0.1080 0.8735 -0.4747
vn -0.4723 -0.8666 0.1610
vn 0.2897 0.9431 0.1635
vn -0.1583 -0.7616 0.6284
vn -0.5560 -0.8311 -0.0097
vn 0.0628 -0.5321 0.8443
vn 0.1444 0.9883 0.0487
vn 0.0525 0.8630 -0.5025
vn 0.0804 0.9413 -0.3279
vn 0.1779 -0.9785 -0.1047
vn 0.2109 0.8857 0.4137
vn 0.1779 0.9553 0.2363
vn 0.2698 0.6489 0.7114
vn -0.0093 0.0776 -0.9969
vn 0.2419 -0.9314 0.2720
vn -0.0093 0.2681 -0.9634
vn 0.3316 -0.2582 0.9074
vn 0.2936 0.4909 0.8203
vn 0.0101 -0.3043 -0.9525
vn 0.3122 0.3141 0.8966
vn 0.0287 0.7517 -0.6589
vn 0.2936 -0.7418 0.6029
vn 0.2109 -0.9737 0.0858
vn 0.3251 -0.4385 0.8379
vn 0.0101 0.6117 -0.7910
vn 0.0287 -0.4810 -0.8763
vn 0.0804 -0.7724 -0.6301
vn 0.3316 -0.0677 0.9410
vn 0.2419 0.7822 0.5741
vn 0.1444 -0.9454 -0.2923
vn 0.1114 0.9836 -0.1418
vn -0.0028 -0.1156 -0.9933
vn 0.3122 -0.6018 0.7351
vn -0.0028 0.4484 -0.8938
vn 0.3251 0.1255 0.9373
vn 0.1114 -0.8758 -0.4696
vn 0.2698 -0.8531 0.4466
vn 0.0525 -0.6391 -0.7674
usemtl None
s off
f 3//1 256//1 234//1 4//1
f 4//2 234//2 232//2 5//2
f 5//3 232//3 219//3 6//3
f 6//4 219//4 220//4 7//4
f 7//5 220//5 223//5 8//5
f 8//6 223//6 227//6 9//6
f 9//7 227//7 228//7 10//7
f 10//8 228//8 198//8 11//8
f 11//9 198//9 197//9 12//9
f 12//10 197//10 201//10 13//10
f 13//11 201//11 225//11 14//11
f 14//12 225//12 243//12 15//12
f 15//13 243//13 253//13 16//13
f 16//14 253//14 238//14 17//14
f 17//15 238//15 237//15 18//15
f 18//16 237//16 247//16 19//16
f 19//17 247//17 250//17 206//17 20//17
f 20//18 206//18 207//18 21//18
f 21//19 207//19 239//19 22//19
f 22//20 239//20 248//20 23//20
f 23//21 248//21 244//21 24//21
f 24//22 244//22 210//22 25//22
f 25//23 210//23 211//23 26//23
f 26//24 211//24 216//24 27//24
f 27//25 216//25 194//25
f 31//26 81//26 85//26 104//26 105//26 109//26 111//26 65//26 59//26 45//26 46//26 48//26 62//26 63//26 99//26 94//26 95//26 107//26 35//26 34//26 33//26 32//26
f 37//27 72//27 71//27
f 35//28 30//28 36//28 89//28 90//28 116//28 114//28 112//28 55//28 54//28 41//28
f 33//29 34//29 40//29 97//29 96//29 61//29 60//29 47//29 42//29 43//29 39//29
f 31//30 32//30 38//30 102//30 103//30 84//30 80//30 67//30 66//30 72//30 37//30 195//30 194//30 216//30 211//30 210//30 244//30 248//30 239//30 207//30 206//30 250//30
f 34//31 35//31 41//31 53//31 50//31 49//31 106//31 93//31 92//31 98//31 40//31
f 32//32 33//32 39//32 58//32 57//32 64//32 110//32 108//32 100//32 101//32 38//32
f 30//33 31//33 250//33 247//33 237//33 238//33 253//33 243//33 225//33 201//33 197//33 198//33 228//33 227//33 223//33 220//33 219//33 232//33 234//33 256//33 196//33 195//33 37//33 71//33 70//33 75//33 74//33 78//33 82//33 86//33 36//33
f 84//34 85//34 81//34 80//34
f 86//35 87//35 89//35 36//35
f 54//27 53//27 41//27
f 98//27 97//27 40//27
f 43//36 44//36 58//36 39//36
f 101//27 102//27 38//27
f 108//37 175//37 174//37 184//37 189//37 188//37 100//37
f 35//26 107//26 51//26 52//26 56//26 113//26 115//26 117//26 91//26 88//26 83//26 79//26 76//26 77//26 73//26 68//26 69//26 81//26 31//26 30//26
f 100//38 188//38 182//38 181//38 186//38 162//38 163//38 183//38 187//38 185//38 164//38 165//38 168//38 170//38 105//38 104//38 103//38 102//38 101//38
f 49//39 51//39 107//39 106//39
f 67//40 69//40 68//40 66//40
f 80//41 81//41 69//41 67//41
f 70//42 215//42 214//42 218//42 258//42 257//42 254//42 255//42 75//42
f 42//43 46//43 45//43 44//43 43//43
f 55//44 152//44 151//44 154//44 155//44 153//44 148//44 149//44 145//44 143//44 144//44 56//44 52//44 50//44 53//44 54//44
f 44//45 45//45 59//45 57//45 58//45
f 87//46 88//46 91//46 90//46 89//46
f 75//47 255//47 233//47 231//47 221//47 222//47 224//47 229//47 230//47 199//47 200//47 202//47 226//47 242//47 77//47 76//47 74//47
f 60//48 62//48 48//48 47//48
f 74//49 76//49 79//49 78//49
f 110//50 177//50 178//50 158//50 156//50 157//50 175//50 108//50
f 114//51 126//51 127//51 132//51 136//51 137//51 138//51 112//51
f 90//52 91//52 117//52 116//52
f 50//53 52//53 51//53 49//53
f 64//54 65//54 111//54 191//54 190//54 180//54 179//54 171//54 172//54 173//54 176//54 177//54 110//54
f 61//55 63//55 62//55 60//55
f 92//56 280//56 271//56 272//56 268//56 269//56 259//56 260//56 96//56 97//56 98//56
f 82//57 83//57 88//57 87//57 86//57
f 66//58 68//58 73//58 251//58 208//58 209//58 240//58 249//58 245//58 212//58 213//58 217//58 205//58 203//58 204//58 215//58 70//58 71//58 72//58
f 106//59 107//59 95//59 293//59 292//59 295//59 296//59 294//59 289//59 290//59 93//59
f 103//60 104//60 85//60 84//60
f 47//61 48//61 46//61 42//61
f 116//62 117//62 115//62 128//62 123//62 122//62 121//62 120//62 118//62 119//62 124//62 125//62 126//62 114//62
f 78//63 79//63 83//63 82//63
f 57//64 59//64 65//64 64//64
f 93//65 290//65 291//65 284//65 283//65 277//65 278//65 280//65 92//65
f 112//66 138//66 139//66 142//66 150//66 146//66 147//66 152//66 55//66
f 96//67 260//67 261//67 262//67 265//67 263//67 264//67 270//67 266//67 267//67 274//67 99//67 63//67 61//67
f 124//68 119//68 29//68
f 132//69 127//69 29//69
f 127//70 126//70 125//70 29//70
f 149//71 148//71 29//71
f 118//72 120//72 29//72
f 119//73 118//73 29//73
f 121//74 122//74 29//74
f 150//75 142//75 29//75
f 143//76 145//76 29//76
f 142//77 139//77 29//77
f 131//78 133//78 134//78 29//78
f 122//79 123//79 29//79
f 147//80 146//80 29//80
f 133//51 131//51 130//51 129//51 128//51 115//51 113//51
f 123//81 128//81 129//81 29//81
f 136//82 132//82 29//82
f 140//83 141//83 29//83
f 144//66 141//66 140//66 135//66 134//66 133//66 113//66 56//66
f 145//84 149//84 29//84
f 134//85 135//85 29//85
f 151//86 152//86 147//86 29//86
f 137//87 136//87 29//87
f 155//88 154//88 29//88
f 130//89 131//89 29//89
f 120//90 121//90 29//90
f 148//91 153//91 29//91
f 125//92 124//92 29//92
f 146//93 150//93 29//93
f 135//94 140//94 29//94
f 153//95 155//95 29//95
f 129//96 130//96 29//96
f 139//97 138//97 137//97 29//97
f 141//98 144//98 143//98 29//98
f 154//99 151//99 29//99
f 178//100 177//100 176//100 28//100
f 170//37 161//37 159//37 160//37 166//37 109//37 105//37
f 157//101 156//101 28//101
f 156//102 158//102 28//102
f 165//103 164//103 28//103
f 173//104 172//104 28//104
f 176//105 173//105 28//105
f 171//106 179//106 28//106
f 181//107 182//107 28//107
f 161//108 170//108 168//108 28//108
f 182//109 188//109 189//109 28//109
f 193//110 169//110 28//110
f 179//111 180//111 28//111
f 162//112 186//112 28//112
f 180//113 190//113 28//113
f 166//50 167//50 169//50 193//50 192//50 191//50 111//50 109//50
f 174//114 175//114 157//114 28//114
f 160//115 159//115 28//115
f 168//116 165//116 28//116
f 169//117 167//117 28//117
f 184//118 174//118 28//118
f 163//119 162//119 28//119
f 187//120 183//120 28//120
f 192//121 193//121 28//121
f 172//122 171//122 28//122
f 164//123 185//123 28//123
f 158//124 178//124 28//124
f 186//125 181//125 28//125
f 167//126 166//126 160//126 28//126
f 189//127 184//127 28//127
f 190//128 191//128 192//128 28//128
f 185//129 187//129 28//129
f 159//130 161//130 28//130
f 183//131 163//131 28//131
f 230//7 229//7 2//7
f 202//10 200//10 2//10
f 200//9 199//9 2//9
f 213//23 212//23 2//23
f 224//5 222//5 2//5
f 229//6 224//6 2//6
f 221//3 231//3 2//3
f 194//132 195//132 196//132 3//132 4//132 5//132 6//132 7//132 8//132 9//132 10//132 11//132 12//132 13//132 14//132 15//132 16//132 17//132 18//132 19//132 20//132 21//132 22//132 23//132 24//132 25//132 26//132 27//132
f 236//15 235//15 2//15
f 205//25 217//25 2//25
f 235//133 252//133 2//133
f 258//134 218//134 2//134
f 242//42 241//42 252//42 235//42 236//42 246//42 251//42 73//42 77//42
f 231//2 233//2 2//2
f 208//17 251//17 246//17 2//17
f 233//1 255//1 254//1 2//1
f 226//11 202//11 2//11
f 204//135 203//135 2//135
f 217//24 213//24 2//24
f 218//136 214//136 2//136
f 241//137 242//137 226//137 2//137
f 209//18 208//18 2//18
f 249//20 240//20 2//20
f 257//138 258//138 2//138
f 222//4 221//4 2//4
f 212//22 245//22 2//22
f 199//8 230//8 2//8
f 246//139 236//139 2//139
f 214//140 215//140 204//140 2//140
f 252//13 241//13 2//13
f 196//141 256//141 3//141
f 254//141 257//141 2//141
f 245//21 249//21 2//21
f 203//142 205//142 2//142
f 240//19 209//19 2//19
f 276//143 275//143 1//143
f 288//144 282//144 1//144
f 282//145 281//145 1//145
f 271//146 280//146 278//146 1//146
f 279//147 273//147 1//147
f 275//148 279//148 1//148
f 267//149 266//149 1//149
f 296//150 295//150 1//150
f 268//151 272//151 1//151
f 295//152 292//152 1//152
f 265//153 262//153 1//153
f 266//154 270//154 1//154
f 274//56 273//56 279//56 275//56 276//56 285//56 94//56 99//56
f 285//65 281//65 282//65 288//65 286//65 287//65 293//65 95//65 94//65
f 289//155 294//155 1//155
f 270//156 264//156 1//156
f 286//157 288//157 1//157
f 259//158 269//158 1//158
f 272//159 271//159 1//159
f 262//160 261//160 1//160
f 287//161 286//161 1//161
f 291//162 290//162 289//162 1//162
f 283//163 284//163 1//163
f 263//164 265//164 1//164
f 273//165 274//165 267//165 1//165
f 278//166 277//166 1//166
f 281//167 285//167 276//167 1//167
f 294//168 296//168 1//168
f 261//169 260//169 259//169 1//169
f 292//170 293//170 287//170 1//170
f 264//171 263//171 1//171
f 277//172 283//172 1//172
f 269//173 268//173 1//173
f 284//174 291//174 1//174
