# Blender v2.79 (sub 0) OBJ File: 'untitled.blend'
# www.blender.org
mtllib Obstical 1.mtl
o Cylinder
v 0.223634 2.524734 -2.528310
v 0.223634 3.054683 -2.528310
v 0.418724 2.524734 -2.509096
v 0.418724 3.054683 -2.509096
v 0.606318 2.524734 -2.452190
v 0.606318 3.054683 -2.452190
v 0.779204 2.524734 -2.359780
v 0.779204 3.054683 -2.359780
v 0.930741 2.524734 -2.235417
v 0.930741 3.054683 -2.235417
v 1.055104 2.524734 -2.083881
v 1.055104 3.054683 -2.083881
v 1.147513 2.524734 -1.910994
v 1.147513 3.054683 -1.910994
v 1.204419 2.524734 -1.723401
v 1.204419 3.054683 -1.723401
v 1.223634 2.524734 -1.528311
v 1.223634 3.054683 -1.528311
v 1.204419 2.524734 -1.333220
v 1.204419 3.054683 -1.333220
v 1.147514 2.524734 -1.145627
v 1.147514 3.054683 -1.145627
v 1.055104 2.524734 -0.972740
v 1.055104 3.054683 -0.972740
v 0.930741 2.524734 -0.821204
v 0.930741 3.054683 -0.821204
v 0.779204 2.524734 -0.696841
v 0.779204 3.054683 -0.696841
v 0.606317 2.524734 -0.604431
v 0.606317 3.054683 -0.604431
v 0.418724 2.524734 -0.547525
v 0.418724 3.054683 -0.547525
v 0.223634 2.524734 -0.528311
v 0.223634 3.054683 -0.528311
v 0.028543 2.524734 -0.547525
v 0.028543 3.054683 -0.547525
v -0.159050 2.524734 -0.604431
v -0.159050 3.054683 -0.604431
v -0.331937 2.524734 -0.696841
v -0.331937 3.054683 -0.696841
v -0.483473 2.524734 -0.821204
v -0.483473 3.054683 -0.821204
v -0.607836 2.524734 -0.972741
v -0.607836 3.054683 -0.972741
v -0.700246 2.524734 -1.145628
v -0.700246 3.054683 -1.145628
v -0.757151 2.524734 -1.333221
v -0.757151 3.054683 -1.333221
v -0.776366 2.524734 -1.528311
v -0.776366 3.054683 -1.528311
v -0.757151 2.524734 -1.723402
v -0.757151 3.054683 -1.723402
v -0.700245 2.524734 -1.910995
v -0.700245 3.054683 -1.910995
v -0.607835 2.524734 -2.083882
v -0.607835 3.054683 -2.083882
v -0.483472 2.524734 -2.235418
v -0.483472 3.054683 -2.235418
v -0.331935 2.524734 -2.359781
v -0.331935 3.054683 -2.359781
v -0.159048 2.524734 -2.452190
v -0.159048 3.054683 -2.452190
v 0.028545 2.524734 -2.509096
v 0.028545 3.054683 -2.509096
v 0.570379 2.524734 -2.103745
v 0.570379 3.054683 -2.103745
v 0.510609 2.524734 -2.097858
v 0.510609 3.054683 -2.097858
v 0.630150 2.524734 -2.097858
v 0.630150 3.054683 -2.097858
v 0.453135 2.524734 -2.080424
v 0.453135 3.054683 -2.080424
v 0.400167 2.524734 -2.052112
v 0.400167 3.054683 -2.052112
v 0.353739 2.524734 -2.014010
v 0.353739 3.054683 -2.014010
v 0.315638 2.524734 -1.967583
v 0.315638 3.054683 -1.967583
v 0.287326 2.524734 -1.914615
v 0.287326 3.054683 -1.914615
v 0.269891 2.524734 -1.857141
v 0.269891 3.054683 -1.857141
v 0.269891 2.524734 -1.737599
v 0.269891 3.054683 -1.737599
v 0.264004 2.524734 -1.797370
v 0.264004 3.054683 -1.797370
v 0.287325 2.524734 -1.680126
v 0.287325 3.054683 -1.680126
v 0.353739 2.524734 -1.580730
v 0.353739 3.054683 -1.580730
v 0.315637 2.524734 -1.627157
v 0.315637 3.054683 -1.627157
v 0.453134 2.524734 -1.514317
v 0.453134 3.054683 -1.514317
v 0.400166 2.524734 -1.542628
v 0.400166 3.054683 -1.542629
v 0.570379 2.524734 -1.490995
v 0.570379 3.054683 -1.490995
v 0.510608 2.524734 -1.496882
v 0.510608 3.054683 -1.496882
v 0.630150 2.524734 -1.496882
v 0.630150 3.054683 -1.496882
v 0.687624 2.524734 -2.080424
v 0.687624 3.054683 -2.080424
v 0.687624 2.524734 -1.514316
v 0.687624 3.054683 -1.514316
v 0.740592 2.524734 -1.542628
v 0.740592 3.054683 -1.542628
v 0.740592 2.524734 -2.052111
v 0.740592 3.054683 -2.052111
v 0.787019 2.524734 -2.014010
v 0.787019 3.054683 -2.014010
v 0.825121 2.524734 -1.627157
v 0.825121 3.054683 -1.627157
v 0.787019 2.524734 -1.580730
v 0.787019 3.054683 -1.580730
v 0.853433 2.524734 -1.680125
v 0.853433 3.054683 -1.680125
v 0.853433 2.524734 -1.914615
v 0.853433 3.054683 -1.914615
v 0.825121 2.524734 -1.967583
v 0.825121 3.054683 -1.967583
v 0.870867 2.524734 -1.857141
v 0.870867 3.054683 -1.857141
v 0.870867 2.524734 -1.737599
v 0.870867 3.054683 -1.737599
v 0.876754 2.524734 -1.797370
v 0.876754 3.054683 -1.797370
vn 0.0980 0.0000 -0.9952
vn 0.2903 0.0000 -0.9569
vn 0.4714 0.0000 -0.8819
vn 0.6344 0.0000 -0.7730
vn 0.7730 0.0000 -0.6344
vn 0.8819 0.0000 -0.4714
vn 0.9569 0.0000 -0.2903
vn 0.9952 0.0000 -0.0980
vn 0.9952 0.0000 0.0980
vn 0.9569 0.0000 0.2903
vn 0.8819 0.0000 0.4714
vn 0.7730 0.0000 0.6344
vn 0.6344 0.0000 0.7730
vn 0.4714 0.0000 0.8819
vn 0.2903 0.0000 0.9569
vn 0.0980 0.0000 0.9952
vn -0.0980 0.0000 0.9952
vn -0.2903 0.0000 0.9569
vn -0.4714 0.0000 0.8819
vn -0.6344 0.0000 0.7730
vn -0.7730 0.0000 0.6344
vn -0.8819 0.0000 0.4714
vn -0.9569 0.0000 0.2903
vn -0.9952 0.0000 0.0980
vn -0.9952 0.0000 -0.0980
vn -0.9569 0.0000 -0.2903
vn -0.8819 0.0000 -0.4714
vn -0.7730 0.0000 -0.6344
vn -0.6344 0.0000 -0.7730
vn -0.4714 0.0000 -0.8819
vn 0.0000 1.0000 0.0000
vn -0.2903 0.0000 -0.9569
vn -0.0980 0.0000 -0.9952
vn 0.0000 -1.0000 -0.0000
usemtl None
s off
f 1//1 2//1 4//1 3//1
f 3//2 4//2 6//2 5//2
f 5//3 6//3 8//3 7//3
f 7//4 8//4 10//4 9//4
f 9//5 10//5 12//5 11//5
f 11//6 12//6 14//6 13//6
f 13//7 14//7 16//7 15//7
f 15//8 16//8 18//8 17//8
f 17//9 18//9 20//9 19//9
f 19//10 20//10 22//10 21//10
f 21//11 22//11 24//11 23//11
f 23//12 24//12 26//12 25//12
f 25//13 26//13 28//13 27//13
f 27//14 28//14 30//14 29//14
f 29//15 30//15 32//15 31//15
f 31//16 32//16 34//16 33//16
f 33//17 34//17 36//17 35//17
f 35//18 36//18 38//18 37//18
f 37//19 38//19 40//19 39//19
f 39//20 40//20 42//20 41//20
f 41//21 42//21 44//21 43//21
f 43//22 44//22 46//22 45//22
f 45//23 46//23 48//23 47//23
f 47//24 48//24 50//24 49//24
f 49//25 50//25 52//25 51//25
f 51//26 52//26 54//26 53//26
f 53//27 54//27 56//27 55//27
f 55//28 56//28 58//28 57//28
f 57//29 58//29 60//29 59//29
f 59//30 60//30 62//30 61//30
f 4//31 2//31 64//31 62//31 60//31 58//31 56//31 54//31 86//31 82//31 80//31 78//31 76//31 74//31 72//31 68//31 66//31 70//31 104//31 110//31 112//31 122//31 120//31 124//31 128//31 14//31 12//31 10//31 8//31 6//31
f 61//32 62//32 64//32 63//32
f 63//33 64//33 2//33 1//33
f 1//34 3//34 5//34 7//34 9//34 11//34 13//34 127//34 123//34 119//34 121//34 111//34 109//34 103//34 69//34 65//34 67//34 71//34 73//34 75//34 77//34 79//34 81//34 85//34 53//34 55//34 57//34 59//34 61//34 63//34
f 125//25 126//25 128//25 127//25
f 113//27 114//27 118//27 117//27
f 115//28 116//28 114//28 113//28
f 81//9 82//9 86//9 85//9
f 123//23 124//23 120//23 119//23
f 127//24 128//24 124//24 123//24
f 121//21 122//21 112//21 111//21
f 65//16 66//16 68//16 67//16
f 99//1 100//1 98//1 97//1
f 77//11 78//11 80//11 79//11
f 97//33 98//33 102//33 101//33
f 67//15 68//15 72//15 71//15
f 111//20 112//20 110//20 109//20
f 95//3 96//3 94//3 93//3
f 14//31 128//31 126//31 118//31 114//31 116//31 108//31 106//31 102//31 98//31 100//31 94//31 96//31 90//31 92//31 88//31 84//31 86//31 54//31 52//31 50//31 48//31 46//31 44//31 42//31 40//31 38//31 36//31 34//31 32//31 30//31 28//31 26//31 24//31 22//31 20//31 18//31 16//31
f 109//19 110//19 104//19 103//19
f 107//29 108//29 116//29 115//29
f 73//13 74//13 76//13 75//13
f 79//10 80//10 82//10 81//10
f 105//30 106//30 108//30 107//30
f 89//4 90//4 96//4 95//4
f 87//6 88//6 92//6 91//6
f 119//22 120//22 122//22 121//22
f 69//17 70//17 66//17 65//17
f 85//8 86//8 84//8 83//8
f 117//26 118//26 126//26 125//26
f 93//2 94//2 100//2 99//2
f 71//14 72//14 74//14 73//14
f 103//18 104//18 70//18 69//18
f 83//7 84//7 88//7 87//7
f 101//32 102//32 106//32 105//32
f 75//12 76//12 78//12 77//12
f 53//34 85//34 83//34 87//34 91//34 89//34 95//34 93//34 99//34 97//34 101//34 105//34 107//34 115//34 113//34 117//34 125//34 127//34 13//34 15//34 17//34 19//34 21//34 23//34 25//34 27//34 29//34 31//34 33//34 35//34 37//34 39//34 41//34 43//34 45//34 47//34 49//34 51//34
f 91//5 92//5 90//5 89//5
