# Blender v2.79 (sub 0) OBJ File: 'Hex 4 hole.blend'
# www.blender.org
mtllib Hex 4 hole.mtl
o Circle_Circle.001
v 0.000000 0.000000 -1.000000
v -0.866025 0.000000 -0.500000
v -0.866025 0.000000 0.500000
v 0.000000 0.000000 1.000000
v 0.866025 0.000000 0.500000
v 0.866025 0.000000 -0.500000
v 0.000000 0.308324 -1.000000
v -0.866025 0.308324 -0.500000
v -0.866025 0.308324 0.500000
v 0.000000 0.308324 1.000000
v 0.866025 0.308324 0.500000
v 0.866025 0.308324 -0.500000
v 0.754690 -0.000000 0.061760
v 0.754690 0.308325 0.061760
v 0.671543 -0.000000 -0.093797
v 0.671543 0.308325 -0.093797
v 0.652034 -0.000000 -0.091875
v 0.652034 0.308325 -0.091875
v 0.633274 -0.000000 -0.086185
v 0.633274 0.308325 -0.086185
v 0.579155 0.308324 0.044472
v 0.579155 -0.000000 0.044472
v 0.588396 0.308324 0.061760
v 0.588396 -0.000000 0.061760
v 0.573464 0.308324 0.025712
v 0.573464 -0.000000 0.025712
v 0.600832 0.308324 0.076914
v 0.600832 -0.000000 0.076914
v 0.652034 -0.000000 0.104282
v 0.652034 0.308325 0.104282
v 0.671543 -0.000000 0.106203
v 0.671543 0.308325 0.106203
v 0.633274 0.308324 0.098591
v 0.633274 -0.000000 0.098591
v 0.769621 -0.000000 -0.013306
v 0.769621 0.308325 -0.013306
v 0.727100 -0.000000 -0.076944
v 0.727100 0.308325 -0.076944
v 0.771543 -0.000000 0.006203
v 0.771543 0.308325 0.006203
v 0.763931 -0.000000 -0.032065
v 0.763931 0.308325 -0.032065
v 0.691052 -0.000000 0.104282
v 0.691052 0.308325 0.104282
v 0.600832 -0.000000 -0.064508
v 0.600832 0.308325 -0.064508
v 0.615986 -0.000000 -0.076944
v 0.615986 0.308325 -0.076944
v 0.588396 -0.000000 -0.049354
v 0.588396 0.308325 -0.049354
v 0.769621 -0.000000 0.025712
v 0.769621 0.308325 0.025712
v 0.727100 -0.000000 0.089350
v 0.727100 0.308325 0.089350
v 0.742253 -0.000000 0.076914
v 0.742253 0.308325 0.076914
v 0.763931 -0.000000 0.044472
v 0.763931 0.308325 0.044472
v 0.571543 0.308324 0.006203
v 0.571543 -0.000000 0.006203
v 0.615986 0.308324 0.089350
v 0.615986 -0.000000 0.089350
v 0.573464 -0.000000 -0.013306
v 0.573464 0.308325 -0.013306
v 0.742253 -0.000000 -0.064507
v 0.742253 0.308325 -0.064507
v 0.709811 -0.000000 0.098591
v 0.709811 0.308325 0.098591
v 0.754690 -0.000000 -0.049354
v 0.754690 0.308325 -0.049354
v 0.579155 -0.000000 -0.032065
v 0.579155 0.308325 -0.032065
v 0.709811 -0.000000 -0.086185
v 0.709811 0.308325 -0.086185
v 0.691052 -0.000000 -0.091875
v 0.691052 0.308325 -0.091875
v -0.597524 -0.000000 0.061760
v -0.597524 0.308324 0.061760
v -0.680671 0.308324 -0.093797
v -0.680671 0.000000 -0.093797
v -0.700180 0.308324 -0.091875
v -0.700180 0.000000 -0.091875
v -0.718939 0.308324 -0.086185
v -0.718939 0.000000 -0.086185
v -0.773059 0.308324 0.044472
v -0.773059 0.000000 0.044472
v -0.763818 0.308324 0.061760
v -0.763818 0.000000 0.061760
v -0.778750 0.308324 0.025712
v -0.778750 0.000000 0.025712
v -0.751382 0.308324 0.076914
v -0.751382 0.000000 0.076914
v -0.700180 0.308324 0.104282
v -0.700180 0.000000 0.104282
v -0.680671 0.308324 0.106203
v -0.680671 0.000000 0.106203
v -0.718940 0.308324 0.098591
v -0.718940 0.000000 0.098591
v -0.582593 0.308324 -0.013306
v -0.582593 0.000000 -0.013306
v -0.625114 0.308324 -0.076944
v -0.625114 0.000000 -0.076944
v -0.580671 -0.000000 0.006203
v -0.580671 0.308324 0.006203
v -0.588283 0.308324 -0.032065
v -0.588283 0.000000 -0.032065
v -0.661162 0.308324 0.104282
v -0.661162 0.000000 0.104282
v -0.751382 0.308324 -0.064508
v -0.751382 0.000000 -0.064508
v -0.736228 0.308324 -0.076944
v -0.736228 0.000000 -0.076944
v -0.763818 0.308324 -0.049354
v -0.763818 0.000000 -0.049354
v -0.582593 -0.000000 0.025712
v -0.582593 0.308324 0.025712
v -0.625114 -0.000000 0.089350
v -0.625114 0.308324 0.089350
v -0.609961 -0.000000 0.076914
v -0.609961 0.308324 0.076914
v -0.588283 -0.000000 0.044472
v -0.588283 0.308324 0.044472
v -0.780671 0.308324 0.006203
v -0.780671 0.000000 0.006203
v -0.736228 0.308324 0.089350
v -0.736228 0.000000 0.089350
v -0.778750 0.308324 -0.013306
v -0.778750 0.000000 -0.013306
v -0.609961 0.308324 -0.064507
v -0.609961 0.000000 -0.064507
v -0.642403 0.308324 0.098591
v -0.642403 0.000000 0.098591
v -0.597524 0.308324 -0.049354
v -0.597524 0.000000 -0.049354
v -0.773059 0.308324 -0.032065
v -0.773059 0.000000 -0.032065
v -0.642403 0.308324 -0.086185
v -0.642403 0.000000 -0.086185
v -0.661162 0.308324 -0.091875
v -0.661162 0.000000 -0.091875
v 0.082522 0.308324 -0.706277
v 0.082522 -0.000000 -0.706277
v -0.000625 0.308324 -0.861835
v -0.000625 -0.000000 -0.861834
v -0.020134 0.308324 -0.859913
v -0.020134 -0.000000 -0.859913
v -0.038893 0.308324 -0.854222
v -0.038893 -0.000000 -0.854222
v -0.093013 0.308324 -0.723566
v -0.093013 -0.000000 -0.723566
v -0.083772 0.308324 -0.706277
v -0.083772 -0.000000 -0.706277
v -0.098704 0.308324 -0.742325
v -0.098704 -0.000000 -0.742325
v -0.071336 0.308324 -0.691124
v -0.071336 -0.000000 -0.691124
v -0.020134 0.308324 -0.663756
v -0.020134 -0.000000 -0.663756
v -0.000625 0.308324 -0.661834
v -0.000625 -0.000000 -0.661834
v -0.038893 0.308324 -0.669447
v -0.038893 -0.000000 -0.669447
v 0.097453 0.308324 -0.781343
v 0.097453 -0.000000 -0.781343
v 0.054932 0.308324 -0.844981
v 0.054932 -0.000000 -0.844981
v 0.099375 0.308324 -0.761834
v 0.099375 -0.000000 -0.761834
v 0.091763 0.308324 -0.800103
v 0.091763 -0.000000 -0.800103
v 0.018884 0.308324 -0.663756
v 0.018884 -0.000000 -0.663756
v -0.071336 0.308324 -0.832545
v -0.071336 -0.000000 -0.832545
v -0.056182 0.308324 -0.844981
v -0.056182 -0.000000 -0.844981
v -0.083772 0.308324 -0.817392
v -0.083772 -0.000000 -0.817392
v 0.097453 0.308324 -0.742325
v 0.097453 -0.000000 -0.742325
v 0.054932 0.308324 -0.678687
v 0.054932 -0.000000 -0.678687
v 0.070086 0.308324 -0.691124
v 0.070086 -0.000000 -0.691124
v 0.091763 0.308324 -0.723566
v 0.091763 -0.000000 -0.723566
v -0.100625 0.308324 -0.761835
v -0.100625 -0.000000 -0.761835
v -0.056182 0.308324 -0.678688
v -0.056182 -0.000000 -0.678688
v -0.098704 0.308324 -0.781344
v -0.098704 -0.000000 -0.781344
v 0.070086 0.308324 -0.832545
v 0.070086 -0.000000 -0.832545
v 0.037643 0.308324 -0.669446
v 0.037643 -0.000000 -0.669446
v 0.082522 0.308324 -0.817391
v 0.082522 -0.000000 -0.817391
v -0.093013 0.308324 -0.800103
v -0.093013 -0.000000 -0.800103
v 0.037643 0.308324 -0.854222
v 0.037643 -0.000000 -0.854222
v 0.018884 0.308324 -0.859913
v 0.018884 -0.000000 -0.859913
v 0.102664 -0.000000 0.808192
v 0.102664 0.308324 0.808192
v 0.019517 -0.000000 0.652635
v 0.019517 0.308324 0.652635
v 0.000009 -0.000000 0.654557
v 0.000009 0.308324 0.654557
v -0.018751 -0.000000 0.660247
v -0.018751 0.308324 0.660247
v -0.072871 -0.000000 0.790904
v -0.072871 0.308324 0.790904
v -0.063630 -0.000000 0.808192
v -0.063630 0.308324 0.808192
v -0.078561 -0.000000 0.772144
v -0.078561 0.308324 0.772144
v -0.051193 -0.000000 0.823346
v -0.051193 0.308324 0.823346
v 0.000008 -0.000000 0.850714
v 0.000008 0.308324 0.850714
v 0.019517 -0.000000 0.852635
v 0.019517 0.308324 0.852636
v -0.018751 -0.000000 0.845023
v -0.018751 0.308324 0.845023
v 0.117596 -0.000000 0.733126
v 0.117596 0.308324 0.733126
v 0.075074 -0.000000 0.669488
v 0.075074 0.308324 0.669488
v 0.119517 -0.000000 0.752635
v 0.119517 0.308324 0.752635
v 0.111905 -0.000000 0.714367
v 0.111905 0.308324 0.714367
v 0.039026 -0.000000 0.850714
v 0.039026 0.308324 0.850714
v -0.051193 -0.000000 0.681925
v -0.051193 0.308324 0.681925
v -0.036039 -0.000000 0.669488
v -0.036039 0.308324 0.669488
v -0.063629 -0.000000 0.697078
v -0.063629 0.308324 0.697078
v 0.117596 -0.000000 0.772144
v 0.117596 0.308324 0.772144
v 0.075074 -0.000000 0.835782
v 0.075074 0.308324 0.835782
v 0.090228 -0.000000 0.823346
v 0.090228 0.308324 0.823346
v 0.111905 -0.000000 0.790904
v 0.111905 0.308324 0.790904
v -0.080483 -0.000000 0.752635
v -0.080483 0.308324 0.752635
v -0.036040 -0.000000 0.835782
v -0.036040 0.308324 0.835782
v -0.078561 -0.000000 0.733126
v -0.078561 0.308324 0.733126
v 0.090228 -0.000000 0.681925
v 0.090228 0.308324 0.681925
v 0.057786 -0.000000 0.845023
v 0.057786 0.308324 0.845023
v 0.102664 -0.000000 0.697078
v 0.102664 0.308324 0.697078
v -0.072870 -0.000000 0.714367
v -0.072870 0.308324 0.714367
v 0.057786 -0.000000 0.660247
v 0.057786 0.308324 0.660247
v 0.039026 -0.000000 0.654557
v 0.039026 0.308324 0.654557
vn 0.0000 -1.0000 0.0000
vn 0.0000 1.0000 0.0000
vn 0.5000 0.0000 -0.8660
vn 0.5000 0.0000 0.8660
vn -1.0000 0.0000 0.0000
vn 1.0000 0.0000 0.0000
vn -0.5000 0.0000 0.8660
vn -0.5000 0.0000 -0.8660
vn -0.9952 0.0000 -0.0980
vn -0.7730 0.0000 -0.6344
vn -0.8819 0.0000 -0.4714
vn 0.9952 0.0000 0.0980
vn -0.9569 0.0000 0.2903
vn -0.9952 0.0000 0.0980
vn -0.7730 0.0000 0.6344
vn 0.0980 0.0000 0.9952
vn 0.0980 0.0000 -0.9952
vn 0.8819 0.0000 0.4714
vn -0.0980 0.0000 -0.9952
vn 0.2903 0.0000 0.9569
vn -0.6344 0.0000 0.7730
vn 0.4714 0.0000 -0.8819
vn -0.4714 0.0000 0.8819
vn -0.6344 0.0000 -0.7730
vn 0.6344 0.0000 0.7730
vn 0.9569 0.0000 0.2903
vn -0.4714 0.0000 -0.8819
vn 0.6344 0.0000 -0.7730
vn 0.8819 -0.0000 -0.4714
vn -0.0980 0.0000 0.9952
vn -0.8819 0.0000 0.4714
vn 0.9952 0.0000 -0.0980
vn -0.9569 0.0000 -0.2903
vn 0.2903 0.0000 -0.9569
vn 0.4714 0.0000 0.8819
vn -0.2903 0.0000 0.9569
vn -0.2903 0.0000 -0.9569
vn 0.9569 0.0000 -0.2903
vn 0.7730 -0.0000 0.6344
vn 0.7730 -0.0000 -0.6344
usemtl None
s off
f 2//1 188//1 154//1 150//1 152//1 156//1 190//1 162//1 158//1 160//1 172//1 196//1 182//1 184//1 142//1 186//1 180//1 168//1 6//1 5//1 39//1 35//1 41//1 69//1 65//1 37//1 73//1 75//1 15//1 17//1 19//1 47//1 45//1 49//1 71//1 63//1 60//1 103//1 100//1 106//1 134//1 130//1 102//1 138//1 140//1 80//1 82//1 84//1 112//1 110//1 114//1 136//1 128//1 124//1 3//1
f 8//2 9//2 123//2 127//2 135//2 113//2 109//2 111//2 83//2 81//2 79//2 139//2 137//2 101//2 129//2 133//2 105//2 99//2 104//2 59//2 64//2 72//2 50//2 46//2 48//2 20//2 18//2 16//2 76//2 74//2 38//2 66//2 70//2 42//2 36//2 40//2 11//2 12//2 167//2 179//2 185//2 141//2 183//2 181//2 195//2 171//2 159//2 157//2 161//2 189//2 155//2 151//2 149//2 153//2 187//2
f 6//3 1//3 7//3 12//3
f 4//4 5//4 11//4 10//4
f 2//5 3//5 9//5 8//5
f 5//6 6//6 12//6 11//6
f 3//7 4//7 10//7 9//7
f 1//8 2//8 8//8 7//8
f 51//9 52//9 40//9 39//9
f 3//1 60//1 26//1 22//1 24//1 28//1 62//1 34//1 29//1 31//1 43//1 67//1 53//1 55//1 13//1 57//1 51//1 39//1 5//1 231//1 227//1 233//1 261//1 257//1 229//1 265//1 267//1 207//1 209//1 211//1 239//1 237//1 241//1 263//1 255//1 251//1
f 55//10 56//10 14//10 13//10
f 13//11 14//11 58//11 57//11
f 63//12 64//12 59//12 60//12
f 35//13 36//13 42//13 41//13
f 39//14 40//14 36//14 35//14
f 69//15 70//15 66//15 65//15
f 15//16 16//16 18//16 17//16
f 29//17 30//17 32//17 31//17
f 49//18 50//18 72//18 71//18
f 31//19 32//19 44//19 43//19
f 17//20 18//20 20//20 19//20
f 65//21 66//21 38//21 37//21
f 62//22 61//22 33//22 34//22
f 37//23 38//23 74//23 73//23
f 53//24 54//24 56//24 55//24
f 47//25 48//25 46//25 45//25
f 71//26 72//26 64//26 63//26
f 11//2 40//2 52//2 58//2 14//2 56//2 54//2 68//2 44//2 32//2 30//2 33//2 61//2 27//2 23//2 21//2 25//2 59//2 9//2 252//2 256//2 264//2 242//2 238//2 240//2 212//2 210//2 208//2 268//2 266//2 230//2 258//2 262//2 234//2 228//2 232//2
f 67//27 68//27 54//27 53//27
f 28//28 27//28 61//28 62//28
f 22//29 21//29 23//29 24//29
f 75//30 76//30 16//30 15//30
f 41//31 42//31 70//31 69//31
f 60//32 59//32 25//32 26//32
f 57//33 58//33 52//33 51//33
f 34//34 33//34 30//34 29//34
f 19//35 20//35 48//35 47//35
f 73//36 74//36 76//36 75//36
f 43//37 44//37 68//37 67//37
f 26//38 25//38 21//38 22//38
f 45//39 46//39 50//39 49//39
f 24//40 23//40 27//40 28//40
f 115//9 116//9 104//9 103//9
f 3//1 124//1 90//1 86//1 88//1 92//1 126//1 98//1 94//1 96//1 108//1 132//1 117//1 119//1 77//1 121//1 115//1 103//1 60//1
f 119//10 120//10 78//10 77//10
f 77//11 78//11 122//11 121//11
f 128//12 127//12 123//12 124//12
f 100//13 99//13 105//13 106//13
f 103//14 104//14 99//14 100//14
f 134//15 133//15 129//15 130//15
f 80//16 79//16 81//16 82//16
f 94//17 93//17 95//17 96//17
f 114//18 113//18 135//18 136//18
f 96//19 95//19 107//19 108//19
f 82//20 81//20 83//20 84//20
f 130//21 129//21 101//21 102//21
f 126//22 125//22 97//22 98//22
f 102//23 101//23 137//23 138//23
f 117//24 118//24 120//24 119//24
f 112//25 111//25 109//25 110//25
f 136//26 135//26 127//26 128//26
f 59//2 104//2 116//2 122//2 78//2 120//2 118//2 131//2 107//2 95//2 93//2 97//2 125//2 91//2 87//2 85//2 89//2 123//2 9//2
f 132//27 131//27 118//27 117//27
f 92//28 91//28 125//28 126//28
f 86//29 85//29 87//29 88//29
f 140//30 139//30 79//30 80//30
f 106//31 105//31 133//31 134//31
f 124//32 123//32 89//32 90//32
f 121//33 122//33 116//33 115//33
f 98//34 97//34 93//34 94//34
f 84//35 83//35 111//35 112//35
f 138//36 137//36 139//36 140//36
f 108//37 107//37 131//37 132//37
f 90//38 89//38 85//38 86//38
f 110//39 109//39 113//39 114//39
f 88//40 87//40 91//40 92//40
f 180//9 179//9 167//9 168//9
f 6//1 168//1 164//1 170//1 198//1 194//1 166//1 202//1 204//1 144//1 146//1 148//1 176//1 174//1 178//1 200//1 192//1 188//1 2//1 1//1
f 184//10 183//10 141//10 142//10
f 142//11 141//11 185//11 186//11
f 192//12 191//12 187//12 188//12
f 164//13 163//13 169//13 170//13
f 168//14 167//14 163//14 164//14
f 198//15 197//15 193//15 194//15
f 144//16 143//16 145//16 146//16
f 158//17 157//17 159//17 160//17
f 178//18 177//18 199//18 200//18
f 160//19 159//19 171//19 172//19
f 146//20 145//20 147//20 148//20
f 194//21 193//21 165//21 166//21
f 190//22 189//22 161//22 162//22
f 166//23 165//23 201//23 202//23
f 182//24 181//24 183//24 184//24
f 176//25 175//25 173//25 174//25
f 200//26 199//26 191//26 192//26
f 187//2 191//2 199//2 177//2 173//2 175//2 147//2 145//2 143//2 203//2 201//2 165//2 193//2 197//2 169//2 163//2 167//2 12//2 7//2 8//2
f 196//27 195//27 181//27 182//27
f 156//28 155//28 189//28 190//28
f 150//29 149//29 151//29 152//29
f 204//30 203//30 143//30 144//30
f 170//31 169//31 197//31 198//31
f 188//32 187//32 153//32 154//32
f 186//33 185//33 179//33 180//33
f 162//34 161//34 157//34 158//34
f 148//35 147//35 175//35 176//35
f 202//36 201//36 203//36 204//36
f 172//37 171//37 195//37 196//37
f 154//38 153//38 149//38 150//38
f 174//39 173//39 177//39 178//39
f 152//40 151//40 155//40 156//40
f 243//9 244//9 232//9 231//9
f 247//10 248//10 206//10 205//10
f 205//11 206//11 250//11 249//11
f 255//12 256//12 252//12 251//12
f 227//13 228//13 234//13 233//13
f 231//14 232//14 228//14 227//14
f 261//15 262//15 258//15 257//15
f 207//16 208//16 210//16 209//16
f 221//17 222//17 224//17 223//17
f 241//18 242//18 264//18 263//18
f 223//19 224//19 236//19 235//19
f 209//20 210//20 212//20 211//20
f 257//21 258//21 230//21 229//21
f 253//22 254//22 226//22 225//22
f 232//2 244//2 250//2 206//2 248//2 246//2 260//2 236//2 224//2 222//2 226//2 254//2 220//2 216//2 214//2 218//2 252//2 9//2 10//2 11//2
f 229//23 230//23 266//23 265//23
f 245//24 246//24 248//24 247//24
f 239//25 240//25 238//25 237//25
f 263//26 264//26 256//26 255//26
f 259//27 260//27 246//27 245//27
f 219//28 220//28 254//28 253//28
f 213//29 214//29 216//29 215//29
f 267//30 268//30 208//30 207//30
f 233//31 234//31 262//31 261//31
f 251//32 252//32 218//32 217//32
f 249//33 250//33 244//33 243//33
f 225//34 226//34 222//34 221//34
f 211//35 212//35 240//35 239//35
f 265//36 266//36 268//36 267//36
f 235//37 236//37 260//37 259//37
f 217//38 218//38 214//38 213//38
f 237//39 238//39 242//39 241//39
f 251//1 217//1 213//1 215//1 219//1 253//1 225//1 221//1 223//1 235//1 259//1 245//1 247//1 205//1 249//1 243//1 231//1 5//1 4//1 3//1
f 215//40 216//40 220//40 219//40
